<svg width="368" height="349" viewBox="0 0 368 349" fill="none" xmlns="http://www.w3.org/2000/svg">
<path d="M326.474 41.6603C326.292 41.7947 325.997 41.896 325.946 42.0686C325.513 43.5637 324.315 43.8851 323.005 44.3174C321.189 44.804 319.263 44.6701 317.532 43.9369C317.164 43.7735 316.835 43.5346 316.566 43.2356C316.296 42.9367 316.093 42.5844 315.968 42.2017C315.844 41.819 315.802 41.4144 315.844 41.0142C315.886 40.614 316.012 40.2272 316.214 39.8789C316.71 38.9239 317.219 38.0439 318.369 37.9272C319.365 37.8262 320.282 37.1997 321.384 37.6797C322.416 38.1296 323.606 37.7752 324.732 38.2774C325.728 38.7217 326.291 39.1246 326.135 40.2427C326.1 40.3838 326.115 40.5326 326.176 40.6642C326.238 40.7959 326.343 40.9024 326.474 40.966L326.474 41.6603Z" fill="#FACCD7"/>
<path d="M119.259 141.61C120.846 140.635 122.599 139.992 124.24 139.141C128.128 137.125 132.465 136.241 136.331 134.185C137.058 133.798 137.969 133.884 138.773 133.512C139.805 132.846 140.917 132.314 142.083 131.928C143.472 131.666 144.84 131.339 146.26 131.197C148.203 131.002 150.121 130.568 152.052 130.255C152.815 130.027 153.599 129.878 154.392 129.811C155.203 129.84 155.847 129.467 155.712 128.457C155.67 127.302 156.681 127.327 157.362 127.042C158.077 126.742 158.787 126.557 158.686 125.531C158.628 124.943 159.039 124.76 159.591 124.77C161.221 124.632 162.766 123.981 164.003 122.909C165.24 121.837 166.104 120.401 166.471 118.806C166.601 117.836 166.9 116.897 167.355 116.03C167.568 115.617 167.673 115.158 167.663 114.694C167.653 114.229 167.526 113.775 167.296 113.372C167.248 113.204 167.164 113.049 167.051 112.917C166.937 112.785 166.796 112.679 166.637 112.607C166.479 112.535 166.307 112.498 166.132 112.499C165.958 112.499 165.786 112.538 165.628 112.612C160.804 113.973 155.84 114.777 150.833 115.008C146.038 115.182 141.242 114.676 136.589 113.507C133.14 112.797 129.79 111.685 126.411 110.715C120.775 108.832 115.297 106.505 110.029 103.755C108.201 102.898 106.326 102.139 104.577 101.118C103.988 100.775 103.27 100.561 103.317 99.6716C103.541 98.9799 104.447 99.5756 104.7 98.9383L104.685 98.9515C106.291 99.0357 107.888 98.6708 109.299 97.8978C110.921 97.0877 112.632 96.469 114.397 96.0541C115.737 95.6031 117.042 95.0521 118.299 94.4057C120.672 93.4975 123.035 92.5667 125.403 91.6454C125.897 90.5019 127.095 91.1474 127.903 90.6768C128.85 90.1533 129.886 89.8131 130.959 89.674C131.997 89.525 132.88 88.9399 133.921 88.8535C134.318 88.7945 134.701 88.6631 135.051 88.4658C137.147 87.5309 139.425 87.0746 141.72 87.1298C142.799 87.1047 143.894 86.9927 144.954 86.9432C146.085 86.8502 147.224 87.0161 148.282 87.4282C148.691 87.6286 149.134 87.753 149.588 87.7953C149.987 87.8124 150.613 88.1155 150.765 87.4927C150.874 87.2375 150.894 86.9533 150.822 86.6853C150.751 86.4173 150.591 86.181 150.37 86.014C149.463 85.4287 148.481 84.969 147.45 84.6476C145.62 84.1113 143.716 84.1679 141.907 83.6645C141.053 83.4266 140.215 83.882 139.386 83.5885C139.066 82.6582 139.834 82.6865 140.341 82.5541C142.053 82.2659 143.686 81.6232 145.135 80.6672C145.669 80.2501 146.365 80.5272 146.981 80.3447C149.986 79.5524 152.829 78.2412 155.382 76.4704C156.373 75.7456 157.72 75.4982 158.827 74.6976C161.652 72.6563 164.029 70.1211 166.711 67.9295C168.353 66.4458 169.575 64.5544 170.251 62.4468C170.448 61.865 170.483 61.2409 170.354 60.6406C170.224 60.0404 169.935 59.4864 169.516 59.0373C168.803 58.1467 167.853 58.6615 166.943 58.8152C164.163 59.5991 161.462 60.6407 158.876 61.9264C154.629 63.4562 150.071 63.9161 145.604 63.2657C144.447 63.1131 143.297 63.4085 142.146 63.1866C137.498 62.2831 132.939 60.9708 128.522 59.2647C123.939 57.5053 119.54 55.2827 114.915 53.6597C107.074 50.4987 98.7243 48.7868 90.2717 48.6073C89.454 48.67 88.6425 48.4237 87.9975 47.9171C87.5684 47.6444 87.6891 47.3511 87.9986 47.0998C88.8211 46.4772 89.778 46.0558 90.7925 45.8694C93.5127 45.2673 96.0951 44.2083 98.7973 43.5481C99.9555 43.2651 101.081 42.8535 102.269 42.6737C102.581 42.6265 102.889 42.3252 103.055 42.8691C103.118 43.0729 103.424 43.0792 103.466 42.9393C103.836 41.7032 105.031 42.1319 105.819 41.8169C106.747 41.5405 107.704 41.3745 108.671 41.3223C110.009 41.1256 111.365 41.0793 112.713 41.1843C113.94 41.2846 115.309 40.9857 116.623 40.9659C119.073 40.9291 121.481 41.3917 123.907 41.5764C128.394 41.918 132.698 43.2193 137.138 43.797C139.442 44.1109 141.764 44.2711 144.088 44.2765C145.62 44.3446 147.153 44.1996 148.645 43.8457C149.998 43.6226 151.366 43.4967 152.737 43.469C157.458 42.8755 162.041 41.4691 166.282 39.3123C168 38.4235 169.788 37.6711 171.526 36.8202C172.216 36.4823 172.989 36.1915 173.138 35.2531C173.165 35.0835 173.424 34.7508 173.605 34.9828C174.245 35.8023 174.558 35.0596 174.939 34.7444C175.726 34.0926 176.491 33.4152 177.26 32.7422C177.536 32.5326 177.756 32.2589 177.902 31.9448C178.314 30.9188 178.13 30.5705 177.027 30.5595C174.616 30.5506 172.225 31.002 169.983 31.8893C166.439 33.2476 162.942 34.7385 159.31 35.8631C159.093 35.9302 158.879 36.0953 158.671 36.0834C157.712 36.0286 157.089 36.324 157.073 37.4027C157.073 37.4606 157.061 37.518 157.037 37.5709C157.014 37.6238 156.979 37.6711 156.936 37.7095C156.892 37.7479 156.841 37.7766 156.786 37.7936C156.73 37.8107 156.672 37.8156 156.614 37.8082C156.116 37.7993 156.295 37.4855 156.368 37.2238C156.558 36.543 156.134 36.3139 155.629 36.4778C152.962 36.9373 150.271 37.2434 147.568 37.3946C146.752 37.4799 145.928 37.4388 145.125 37.2727C143.669 37.3415 142.211 37.2644 140.771 37.0424C140.502 36.0321 141.372 35.9517 141.933 35.6799C145.679 33.8883 149.125 31.5282 152.15 28.6831C154.438 26.6484 156.57 24.4448 158.528 22.0909C160.514 19.7786 162.269 17.2771 163.767 14.6224C164.655 13.2438 165.238 11.6916 165.478 10.0695C165.718 8.44745 165.609 6.79287 165.158 5.21636C164.911 4.55678 164.473 3.82321 165.094 3.10242C166.01 3.10701 166.912 3.3227 167.731 3.73271C168.517 4.05867 167.381 4.29547 167.803 4.46586C168.181 4.61842 168.767 4.28587 168.907 5.00163C169.022 5.38271 169.164 5.7548 169.333 6.11483C170.433 8.8504 171.78 11.4802 173.357 13.9718C174.299 15.2619 175.567 16.2782 177.032 16.9168C177.815 17.367 178.447 17.9793 179.212 18.4279C180.871 19.2461 182.601 19.9086 184.382 20.4068C187.358 21.3041 190.272 22.3919 193.108 23.6633C194.445 24.393 195.868 24.9514 197.344 25.3252C197.746 25.3632 198.131 25.5024 198.464 25.73C199.695 26.96 201.424 26.8178 202.892 27.3692C203.641 27.6507 204.325 28.0609 205.078 28.326C205.596 28.5082 205.984 30.1974 205.684 30.6355C205.478 30.936 205.267 30.6965 205.165 30.5334C204.943 30.1279 204.701 29.7345 204.437 29.355C204.449 30.6135 203.331 31.6162 203.747 32.9205C202.548 33.7694 203.013 35.1994 202.627 36.3297C202.227 37.4995 201.835 38.6922 201.501 39.8893C200.676 42.8522 199.778 45.7936 198.722 48.6773C198.248 50.4076 197.621 52.0922 196.847 53.7109C195.794 55.4729 195.34 57.4415 194.309 59.1858C193.312 60.8736 192.732 62.8044 191.787 64.5289C191.023 65.9234 190.111 67.2762 189.402 68.6737C188.215 71.0117 186.631 73.1187 185.588 75.517C185.248 76.2998 184.673 76.9164 184.29 77.672C184.123 78.0048 184.027 78.3685 184.008 78.7403C183.988 79.112 184.046 79.4837 184.177 79.8321C184.688 80.6707 183.945 81.0975 183.561 81.6102C181.864 83.8716 180.18 86.1428 178.253 88.5879C182.441 85.604 186.456 82.3836 190.277 78.9425C194.28 75.1958 198.151 71.3242 201.768 67.1892C204.312 64.2814 207.007 61.5122 209.406 58.4696C212.544 54.1071 215.079 49.341 216.941 44.3006C218.293 40.3291 219.41 36.2819 220.288 32.1798C220.685 30.9053 220.784 29.5566 220.577 28.2378C220.212 26.0869 221.162 23.9131 220.534 21.7587C220.154 20.4571 221.458 19.0371 220.603 17.9625C219.944 16.8193 219.513 15.5591 219.334 14.2519C218.79 11.9396 217.73 9.78003 216.235 7.9341C216.093 7.82959 215.999 7.6733 215.972 7.49933C215.945 7.32536 215.988 7.14782 216.092 7.00546C216.203 6.97838 216.355 6.98874 216.42 6.91864C217.381 5.8913 217.392 5.84034 218.768 6.25409C219.693 6.43448 220.563 6.83117 221.307 7.4118C222.05 7.99243 222.645 8.74055 223.045 9.59513C224.092 11.4685 224.801 13.5116 225.14 15.6308L225.117 15.6098C226.227 15.8962 226.402 16.9904 226.804 17.7766C228.167 20.4446 229.33 23.2142 230.662 25.8991C231.477 27.5411 232.119 29.2755 232.907 30.8845C234.101 33.3227 234.974 35.8755 236.093 38.3307C236.287 38.7564 236.779 39.5764 236.455 39.6984C234.855 40.3026 236.261 40.7058 236.513 41.0989C236.742 41.4233 236.891 41.7978 236.947 42.1912C237.064 42.9284 237.38 43.6197 237.861 44.1906C238.343 44.7615 238.97 45.1905 239.677 45.4315C240.793 45.8705 241.706 46.7072 242.242 47.7802C242.375 48.0585 242.712 48.0958 242.916 48.2675C244.601 49.6884 246.059 51.3593 247.238 53.222C248.022 54.4536 248.81 55.6724 249.517 56.9644C250.949 59.6634 251.968 62.5617 252.541 65.5628C252.791 67.3183 252.918 69.0889 252.922 70.862C253.063 72.9222 253.199 74.9767 253.49 77.0314C253.629 78.4331 253.671 79.8428 253.613 81.2501C253.615 81.3934 253.58 81.5346 253.511 81.6604C253.443 81.7861 253.343 81.8922 253.221 81.9683C252.952 82.1598 252.864 82.4086 253.239 82.6284C253.377 82.7091 253.608 82.8842 253.587 82.9455C253.397 83.6998 253.487 84.4978 253.84 85.1907C254.019 86.1205 254.096 87.067 254.07 88.0135C254.251 88.8932 254.261 89.7996 254.099 90.6831C254.028 91.59 253.89 92.4905 253.689 93.3775C253.48 94.0997 253.454 94.8627 253.615 95.5972C253.704 96.2312 253.602 96.8774 253.321 97.4527C253.214 97.6664 253.149 97.8444 252.879 97.9006C251.767 98.1317 251.77 98.1389 252.518 99.1183C252.545 99.1698 252.562 99.2254 252.571 99.2828C252.274 102.595 250.977 105.729 250.826 109.068C250.673 109.813 250.928 110.884 249.503 110.569C249.269 110.517 249.062 110.92 249.48 111.137C250.28 111.55 250.277 112.167 249.953 112.888C249.348 114.233 249.07 115.709 248.479 117.039C247.823 119.251 246.87 121.364 245.646 123.321C245.266 123.79 245.533 124.82 245.015 125.535C243.899 127.201 242.983 128.994 242.287 130.875C241.842 131.95 240.724 132.601 240.321 133.771C240.246 133.99 239.847 134.757 239.183 134.58C238.916 134.509 238.623 134.227 238.42 134.542C238.2 134.886 238.615 134.971 238.805 135.147C239.124 135.441 238.844 135.688 238.671 135.879C237.823 136.8 237.133 137.855 236.63 139.002C236.551 139.154 236.457 139.298 236.35 139.431C235.964 139.979 234.731 139.593 234.899 140.756C235.004 141.484 233.685 141.469 234.049 142.355C234.07 142.408 233.941 142.552 233.855 142.615C230.953 144.731 229.06 147.88 226.239 150.072C224.657 151.303 223.453 152.982 221.808 154.074C220.251 155.107 218.791 156.277 217.195 157.255C215.404 158.352 213.596 159.413 211.778 160.463C211.391 160.687 211.122 160.366 210.817 160.517C210.525 161.378 210.216 162.212 209.023 161.662C208.813 160.689 209.394 159.878 209.59 158.989C211.441 151.767 212.641 144.394 213.176 136.957C213.407 135.348 213.214 133.706 212.617 132.193C212.514 131.988 212.387 131.694 212.526 131.531C213.414 130.493 212.795 129.342 212.868 128.237C213.036 125.719 212.89 123.177 213.093 120.699C213.254 118.175 213.563 115.662 214.017 113.173C214.191 112.675 214.168 112.129 213.952 111.647C213.434 110.791 213.305 110.052 214.318 109.457C214.435 109.369 214.531 109.257 214.598 109.128C214.666 108.998 214.703 108.856 214.708 108.71C215.603 103.191 217.386 97.8529 219.988 92.9038C221.905 89.7367 223.29 86.2769 224.088 82.662C224.799 81.2702 225.773 80.0292 226.956 79.0072C230.057 75.9811 232.849 72.6527 235.288 69.0716C236.544 66.9016 237.171 64.4249 237.099 61.9187C237.477 59.933 237.522 57.8985 237.234 55.8979C237.106 55.4448 237.28 54.7248 236.55 54.6641C235.955 54.6146 235.699 55.1674 235.393 55.5871C234.63 56.6754 233.986 57.8429 233.474 59.0694C230.948 64.6569 227.607 69.8385 223.56 74.4449C217.303 81.7287 210.098 88.0771 203.488 95.0098C200.542 98.1003 197.692 101.291 195.06 104.653C190.712 110.106 186.975 116.018 183.915 122.284C181.591 127.015 180.262 132.171 180.008 137.436C179.615 142.093 179.828 146.782 180.641 151.385C180.831 152.881 181.407 154.301 182.314 155.505C182.984 156.779 183.445 158.153 183.68 159.573C183.713 160.015 183.864 160.377 184.379 160.399C185.211 160.436 185.963 160.573 185.665 161.686C185.402 162.666 185.028 163.638 183.741 163.513C182.077 163.351 180.409 163.337 178.743 163.1C173.594 161.91 168.613 160.085 163.914 157.668C159.052 155.69 154.598 152.895 149.859 150.681C144.586 147.915 138.968 145.865 133.152 144.587C128.794 143.837 124.607 141.966 120.049 142.411C119.551 142.459 119.117 142.276 119.259 141.61Z" fill="#F38088"/>
<path d="M119.259 141.61C119.353 141.899 119.612 142.295 119.808 142.178C121.083 141.416 122.304 142.121 123.547 142.211C125.315 142.338 127.035 142.78 128.781 142.991C129.833 143.118 130.431 144.642 131.308 144.098C132.507 143.355 133.228 144.324 134.165 144.375C136.507 144.768 138.793 145.438 140.977 146.371C142.839 146.922 144.647 147.881 146.49 148.624C148.918 149.601 151.142 150.997 153.601 151.917C154.815 152.371 155.763 153.39 156.986 153.935C157.872 154.438 158.812 154.837 159.788 155.126C160.018 155.139 160.241 155.21 160.437 155.331C160.632 155.453 160.794 155.622 160.908 155.822C161.006 156.034 161.164 156.213 161.363 156.336C161.561 156.46 161.791 156.523 162.024 156.518C163.403 156.373 164.206 157.827 165.547 157.689C166.659 158.921 168.312 159.061 169.709 159.708C171.19 160.393 172.76 160.894 174.307 161.432C174.641 161.515 174.93 161.728 175.108 162.023C175.259 162.305 175.457 162.542 175.772 162.433C177.515 161.831 179.088 162.918 180.784 162.922C181.892 162.847 183.005 162.924 184.091 163.152C185.03 163.413 184.831 162.332 185.154 161.874C185.326 161.629 185.661 161.263 185.413 160.947C185.345 160.869 185.263 160.806 185.171 160.76C185.079 160.714 184.979 160.687 184.877 160.681C184.774 160.674 184.671 160.688 184.574 160.721C184.477 160.755 184.388 160.808 184.311 160.876C183.21 161.856 183.268 160.411 183.283 160.248C183.443 158.539 182.235 157.198 182.103 155.587C182.603 155.316 183.008 154.898 183.262 154.391C183.517 153.883 183.61 153.309 183.529 152.746C183.478 150.732 183.47 148.708 183.505 146.689C183.428 138.34 185.342 130.093 189.089 122.631C190.246 120.567 191.522 118.571 192.911 116.654C195.958 112.093 199.3 107.737 202.915 103.613C206.474 99.6606 210.076 95.7936 213.985 92.1723C216.895 89.4767 219.443 86.3771 222.398 83.6983C222.987 83.1637 223.482 82.4646 224.427 82.5817C224.539 83.3285 224.406 84.0915 224.049 84.7564C223.315 86.371 223.436 88.3617 221.935 89.6352C222.07 90.7949 221.185 91.2571 220.444 91.8181C221.148 92.6059 220.285 93.1222 220.075 93.7276C219.785 94.4175 219.46 95.0922 219.102 95.7492C218.331 96.982 217.855 98.3759 217.711 99.8226C217.712 99.9184 217.598 100.018 217.533 100.112C216.057 102.244 216.283 104.957 215.121 107.202C214.972 107.49 215.112 107.869 215.165 108.216C215.293 109.055 215.405 109.933 214.158 110.081C213.65 110.141 213.623 110.533 213.945 110.802C214.8 111.517 214.493 112.315 214.481 113.26C214.458 115.066 213.429 116.77 214.014 118.602C214.03 118.658 214.03 118.718 214.014 118.774C213.794 119.582 213.246 120.473 213.43 121.174C213.542 121.986 213.578 122.806 213.538 123.625C213.687 124.917 213.615 126.225 213.326 127.494C213.073 128.515 213.678 129.486 213.658 130.5C213.65 130.915 213.964 131.67 212.953 131.435C212.639 131.362 212.611 131.725 212.811 131.873C213.852 132.643 213.633 133.789 213.655 134.812C213.601 137.591 213.404 140.366 213.063 143.125C212.715 147.393 211.475 151.477 210.837 155.681C210.537 157.757 209.976 159.787 209.166 161.722C209.005 162.457 208.346 162.645 207.795 162.915C205.942 163.824 204.04 164.631 202.197 165.563C201.347 166.048 200.573 166.658 199.903 167.372C197.304 169.974 194.454 172.313 191.395 174.354C189.33 175.694 187.151 176.79 185.037 178.017C184.573 178.287 184.127 178.675 183.437 178.425C182.992 178.263 182.838 178.514 183.239 178.939C183.412 179.122 183.064 179.342 182.891 179.378C181.712 179.625 180.761 180.496 179.501 180.547C178.492 180.662 177.541 181.076 176.769 181.736C176.007 182.317 175.247 182.084 174.539 182.368C174.447 182.405 174.334 182.471 174.257 182.446C173.894 182.326 174.231 181.471 173.583 181.716C173.114 181.892 173.93 182.465 173.414 182.741C173.223 182.859 173.019 182.955 172.806 183.027C171.568 183.443 170.297 183.752 169.006 183.95C167.358 184.085 165.818 184.667 164.179 184.83C162.97 185.019 161.752 185.139 160.53 185.19C159.844 185.181 159.228 185.488 158.502 185.525C156.023 185.649 153.546 185.727 151.064 185.736C148.246 185.691 145.434 185.468 142.645 185.07C142.355 185.034 142.051 185.014 141.936 184.689C141.665 183.919 141.449 183.505 140.898 184.573C140.732 184.894 140.177 184.453 139.798 184.367C138.243 184.016 136.64 184.038 135.073 183.684C133.51 183.332 132.053 182.677 130.516 182.307C128.276 181.769 126.225 180.725 124.016 180.077C121.647 179.343 119.319 178.484 117.04 177.504C115.539 176.884 114.144 176.048 112.579 175.514C111.28 175.141 110.105 174.425 109.179 173.441C108.621 173.033 107.988 172.739 107.316 172.575C106.947 172.428 106.565 172.306 106.214 172.125C105.439 171.725 105.223 170.713 104.06 170.581C103.583 170.489 103.131 170.294 102.738 170.008C102.345 169.723 102.019 169.354 101.784 168.928C101.526 168.489 100.642 168.71 100.126 168.205C99.616 167.704 98.7771 167.53 98.7001 166.63C98.6749 166.336 98.4313 166.318 98.2164 166.244C95.3363 165.075 92.8615 163.088 91.0976 160.529C90.8926 160.335 90.6688 160.163 90.4295 160.014C89.6766 159.35 88.8532 158.722 89.0016 157.511C89.0445 157.16 88.8749 156.706 88.4557 157.266C88.0711 157.78 87.8071 157.551 87.5108 157.215C86.7649 156.37 86.0169 155.527 85.2752 154.679C85.0958 154.473 84.8128 154.229 85.2546 154.024C86.4535 153.466 85.4433 153.373 85.0831 153.38C84.1876 153.397 83.7571 152.811 83.204 152.268C82.4688 151.546 83.7813 151.286 83.469 150.84C83.0554 150.248 82.3878 151.33 82.1915 150.94C81.5187 149.866 80.7274 148.87 79.8325 147.973C82.2806 148.55 84.4767 148.512 86.6445 148.932C87.7743 149.241 88.9632 149.265 90.1043 149C90.9569 148.834 91.8317 148.814 92.6908 148.943C94.5377 148.891 96.3784 148.706 98.1986 148.389C101.629 147.918 104.991 147.042 108.215 145.78C110.396 145.209 112.526 144.457 114.582 143.53C116.027 142.642 117.607 141.994 119.259 141.61Z" fill="#F16175"/>
<path d="M271.281 231.614C272.973 230.321 274.813 229.221 276.512 227.976C278.232 226.991 279.811 225.778 281.207 224.37C282.131 223.469 283.17 222.695 284.297 222.066C285.982 220.844 287.593 219.524 289.123 218.112C291.031 216.695 292.586 214.856 293.665 212.739C293.804 212.39 294.114 211.901 294.403 211.857C295.512 211.689 295.971 210.744 296.704 210.138C296.958 209.951 297.254 209.828 297.565 209.781C297.877 209.733 298.195 209.762 298.493 209.865C298.791 209.967 299.06 210.141 299.276 210.37C299.492 210.6 299.649 210.878 299.734 211.182C299.764 211.469 299.77 211.759 299.751 212.047C299.685 213.194 299.795 214.345 300.077 215.459C300.589 217.551 300.926 219.682 301.085 221.83C301.11 221.996 301.257 222.158 301.245 222.314C300.938 223.503 300.863 224.74 301.024 225.957C301.355 227.099 301.506 228.286 301.473 229.475C301.449 229.729 301.485 229.984 301.579 230.221C301.672 230.457 301.819 230.669 302.009 230.838C302.647 231.359 302.602 231.952 302.06 232.637C301.809 232.921 301.628 233.259 301.53 233.625C301.432 233.991 301.42 234.374 301.495 234.745C301.674 236.939 301.554 239.148 301.139 241.31C301.139 241.482 301.099 241.652 301.021 241.806C300.944 241.96 300.831 242.093 300.693 242.196C300.578 242.285 300.49 242.405 300.439 242.542C300.388 242.678 300.377 242.827 300.407 242.969C300.713 245.315 300.549 247.698 299.926 249.981C299.641 251.772 299.007 253.473 298.739 255.256C298.697 255.708 298.559 256.147 298.335 256.542C298.102 257.246 297.923 257.967 297.798 258.697C298.16 259.604 297.367 260.261 297.239 261.088C296.886 262.581 296.417 264.044 295.835 265.464C295.334 267.008 294.573 268.453 294.168 270.04C293.991 270.733 293.326 271.245 293.091 271.964C293.02 272.179 292.821 272.12 292.666 272.05C292.237 271.858 291.892 271.937 292.207 272.427C292.752 273.277 292.328 273.843 291.816 274.424C291.103 275.378 290.491 276.405 289.99 277.486C288.054 280.688 285.939 283.778 283.656 286.742C282.132 288.471 280.736 290.308 279.478 292.238C279.022 293.102 278.081 293.524 277.444 294.264C275.37 296.511 273.123 298.593 270.726 300.491C268.591 302.303 266.164 303.656 263.912 305.274C262.195 306.376 260.405 307.361 258.556 308.221C257.238 308.981 255.876 309.663 254.478 310.262C252.868 311.074 251.152 311.656 249.38 311.992C248.552 311.451 247.607 311.334 248.308 309.669C248.567 308.142 248.547 306.58 248.247 305.061C248.142 299.795 248.886 294.547 250.451 289.518C251.225 286.93 252.345 284.373 252.953 281.806C253.53 280.233 254.315 278.744 255.285 277.377C257.269 273.395 259.312 269.446 261.375 265.504C263.785 260.897 265.925 256.154 267.785 251.3C269.14 247.182 270.039 242.927 270.465 238.613C270.763 236.844 270.889 235.051 270.841 233.258C270.79 232.675 270.946 232.093 271.281 231.614Z" fill="#5BBE88"/>
<path d="M103.317 99.6719C103.974 100.775 105.273 101.032 106.251 101.512C108.891 102.808 111.551 104.102 114.263 105.247C117.031 106.416 119.745 107.714 122.52 108.867C125.606 110.149 128.889 110.58 131.941 111.805C133.737 112.526 135.693 112.564 137.478 113.365C138.512 113.688 139.588 113.856 140.671 113.863C141.28 113.932 141.953 113.716 142.369 114.412C142.433 114.467 142.508 114.504 142.59 114.521C142.672 114.538 142.756 114.534 142.836 114.51C144.143 113.823 145.419 114.492 146.708 114.555C146.937 114.533 147.167 114.559 147.385 114.631C147.603 114.703 147.804 114.82 147.974 114.974C148.016 115.033 148.069 115.084 148.131 115.122C148.193 115.16 148.261 115.185 148.333 115.195C148.405 115.206 148.478 115.201 148.548 115.183C148.618 115.164 148.684 115.131 148.741 115.086C150.102 114.345 151.674 114.088 153.2 114.358C155.519 114.317 157.827 114.021 160.082 113.477C162.218 113.139 164.316 112.598 166.348 111.859C166.44 111.811 166.542 111.784 166.645 111.779C166.749 111.773 166.853 111.79 166.949 111.828C167.046 111.865 167.133 111.923 167.206 111.997C167.278 112.072 167.334 112.16 167.37 112.258C167.902 113.721 168.876 115.159 167.515 116.736C167.291 117.02 167.133 117.35 167.053 117.703C166.973 118.056 166.973 118.422 167.054 118.775C167.186 119.731 166.298 120.625 165.834 121.504C165.645 121.987 165.356 122.425 164.986 122.788C164.615 123.151 164.171 123.431 163.684 123.609C162.996 123.792 162.674 125.023 162.22 124.837C161.19 124.415 161.231 125.348 160.794 125.636C160.534 125.807 160.354 125.993 160.161 125.56C160.049 125.36 159.886 125.195 159.689 125.08C159.593 125.014 159.479 124.981 159.363 124.986C159.247 124.99 159.135 125.032 159.045 125.105C158.8 125.298 158.906 125.53 159.062 125.699C159.817 126.515 159.367 126.76 158.561 127.118C157.606 127.541 156.338 127.34 155.712 128.457C155.481 128.448 155.201 128.521 155.027 128.417C153.523 127.799 151.882 127.589 150.271 127.808C147.767 127.716 145.271 128.111 142.763 128.205C140.83 128.281 138.905 128.514 137.009 128.902C133.674 129.581 130.274 129.96 126.962 130.728C125.766 131.005 124.573 131.368 123.351 131.583C123.238 131.602 123.123 131.615 123.012 131.641C122.297 131.804 122.104 133.02 121.352 132.752C120.473 132.439 119.95 133.039 119.26 133.16C118.475 133.264 117.7 133.436 116.945 133.674C115.264 134.037 113.638 134.622 112.111 135.414C111.308 135.971 110.267 135.722 109.346 136.061C106.186 137.232 102.961 138.215 99.6853 139.006C98.256 139.268 96.8461 139.628 95.4656 140.082C94.4318 140.482 93.2088 140.363 92.1242 140.668C90.3838 141.158 88.5766 141.194 86.8266 141.604C86.0306 141.642 85.2353 141.515 84.4912 141.229C82.9121 141.026 81.3758 140.571 79.9408 139.881C79.5802 139.597 79.1619 139.394 78.7151 139.287C77.1331 139.245 76.5369 137.828 75.7777 136.937C75.2514 136.081 74.7983 135.182 74.4233 134.25C73.7557 132.503 73.248 130.699 72.9064 128.86C72.8937 128.823 72.8058 128.811 72.7529 128.787L72.7778 128.817C72.7589 125.289 73.0944 121.767 73.7792 118.306C73.9909 117.723 74.247 117.158 74.5452 116.614C75.022 115.235 74.727 113.794 75.1317 112.4C75.5681 111.379 75.7707 110.274 75.7247 109.165C75.6787 108.863 75.9442 108.512 75.4989 108.329C75.0369 108.138 75.0442 107.705 75.3172 107.525C76.1376 106.985 75.784 106.361 75.5801 105.719C75.0683 103.179 74.4018 100.673 73.5844 98.2142C73.0253 96.7762 72.76 95.2407 72.8042 93.6984C72.8485 92.1562 73.2013 90.6384 73.842 89.2348C75.8641 89.2041 77.8616 89.6817 79.651 90.624C80.3551 93.3641 81.9474 95.7937 84.1789 97.5328C86.2319 99.2654 88.8121 100.25 91.4974 100.325C93.1484 100.432 94.7943 100.372 96.4593 100.583C97.929 100.639 99.3957 100.412 100.779 99.9135C101.605 99.6867 102.464 99.605 103.317 99.6719Z" fill="#F16075"/>
<path d="M219.609 259.736C220.118 260.122 219.786 260.719 219.976 261.178C220.117 261.458 220.282 261.725 220.468 261.978C220.61 261.611 220.952 261.18 220.859 260.89C220.658 259.539 220.59 258.172 220.657 256.808C220.649 255.552 220.758 254.298 220.984 253.062C221.047 251.827 220.594 250.648 220.708 249.422C220.754 248.927 220.905 248.504 221.542 248.757C221.793 248.856 222.014 248.88 222.049 248.584C222.074 248.378 221.999 248.004 221.874 247.957C219.891 247.214 220.896 245.48 220.834 244.285C220.736 242.414 220.83 240.525 220.754 238.631C220.3 236.457 220.205 234.223 220.471 232.017C220.58 231.259 220.455 230.485 220.111 229.8C219.953 229.189 219.894 228.556 219.938 227.926C219.935 227.805 219.885 227.648 220.165 227.587C221.037 227.395 221.147 227.148 220.445 226.532C220.149 226.289 219.925 225.969 219.798 225.608C219.671 225.247 219.645 224.858 219.723 224.483C219.722 223.072 219.531 221.668 219.157 220.308C218.764 218.504 219.001 216.683 218.58 214.882C217.879 211.886 217.666 208.796 217.099 205.758C216.487 202.482 215.765 199.224 215.005 195.993C214.439 193.589 213.974 191.139 213.197 188.764C212.742 187.687 212.433 186.554 212.277 185.394C212.248 184.771 211.165 184.553 211.79 183.812C211.733 181.916 211.83 180.019 212.08 178.14C212.233 177.074 212.215 175.99 212.027 174.93C211.758 173.757 212.499 172.508 212.451 171.236C212.431 170.726 212.548 170.205 212.548 169.685C212.547 169.134 212.586 168.585 211.721 168.902C211.629 168.947 211.527 168.971 211.424 168.972C211.321 168.974 211.219 168.953 211.125 168.91C211.032 168.868 210.948 168.806 210.881 168.728C210.813 168.65 210.764 168.559 210.735 168.46C210.694 168.35 210.674 168.233 210.679 168.116C210.683 167.998 210.71 167.883 210.759 167.777C210.809 167.67 210.879 167.574 210.965 167.495C211.052 167.416 211.154 167.355 211.264 167.315C211.503 167.257 211.726 167.145 211.915 166.987C212.104 166.83 212.254 166.631 212.355 166.407C212.456 166.182 212.504 165.938 212.496 165.692C212.488 165.446 212.424 165.206 212.309 164.988C212.243 164.846 212.209 164.692 212.208 164.536C212.207 164.381 212.239 164.226 212.303 164.084C212.366 163.941 212.459 163.814 212.575 163.71C212.692 163.606 212.829 163.528 212.977 163.481C215.459 166.827 217.569 170.433 219.272 174.235C220.673 177.642 222.191 180.992 223.524 184.437C225.386 189.349 226.914 194.381 228.098 199.499C228.791 202.4 229.277 205.389 229.725 208.364C229.917 209.636 230.188 210.978 230.423 212.256C230.687 213.693 230.752 215.216 231.027 216.679C231.051 218.107 231.28 219.524 231.708 220.886C231.754 221.054 231.759 221.231 231.723 221.401C231.56 224.183 232.324 226.92 232.117 229.704C232.836 230.658 231.828 231.913 232.681 232.876C232.876 233.097 232.762 233.54 232.592 233.865C232.359 234.444 232.361 235.092 232.599 235.67C232.798 236.44 232.766 237.252 232.507 238.004C232.398 239.183 232.536 240.371 232.913 241.494C233.164 243.294 233.224 245.116 233.091 246.928C232.939 248.77 233.206 250.608 232.989 252.456C233.055 254.458 232.985 256.461 232.778 258.453C232.751 258.848 232.635 259.232 232.437 259.576C232.04 260.081 231.752 260.518 232.844 260.455C233.227 260.433 233.113 261.026 233.026 261.334C232.274 263.996 232.061 266.773 231.198 269.424C230.745 270.727 230.576 272.112 230.702 273.485C230.833 274.274 230.742 275.084 230.44 275.824C230.193 276.725 230.094 277.659 230.146 278.591C229.684 280.805 229.516 283.07 229.649 285.328C229.655 285.413 229.685 285.494 229.737 285.561C229.788 285.629 229.859 285.68 229.939 285.708C230.183 285.958 230.348 286.275 230.41 286.62C230.473 286.964 230.432 287.319 230.291 287.639C228.61 296.613 226.412 305.483 223.706 314.203C223.389 315.08 223.436 316.037 223.049 316.892C222.723 317.611 223.331 317.925 223.689 318.345C223.7 319.375 223.307 320.368 222.595 321.111C222.448 321.246 222.333 321.413 222.261 321.6C222.189 321.786 222.161 321.987 222.179 322.186C222.549 323.426 221.744 324.335 221.436 325.381C220.468 328.671 219.502 331.962 218.538 335.254C217.936 337.319 217.355 339.386 216.576 341.401C215.908 343.133 215.672 344.999 215.136 346.787C214.246 349.751 213.032 352.6 212.183 355.579C211.564 356.793 211.091 358.076 210.777 359.402C209.844 359.756 210.304 361.093 209.248 361.468C208.696 361.665 209.717 361.793 209.505 362.048C208.806 362.887 208.755 364.056 207.978 364.859C206.655 365.888 205.129 366.627 203.501 367.028C202.299 366.081 200.444 366.171 199.653 364.558C199.531 364.365 199.454 364.147 199.428 363.921C199.401 363.694 199.426 363.464 199.5 363.249C199.574 363.033 199.696 362.837 199.856 362.674C200.016 362.512 200.21 362.387 200.425 362.31C200.61 362.174 200.776 362.015 200.919 361.836C200.954 361.67 200.884 361.61 200.723 361.641C200.495 361.679 200.272 361.741 200.058 361.826C199.638 362.04 199.421 361.983 199.433 361.468C199.383 360.95 199.397 360.428 199.476 359.914C200.486 356.472 200.843 352.868 202.097 349.487C202.333 348.725 202.515 347.947 202.643 347.159C202.98 345.607 203.519 344.096 204.004 342.577C205.056 339.278 206.203 336.007 207.152 332.679C207.451 331.237 207.853 329.818 208.357 328.433C208.926 326.886 209.342 325.287 209.599 323.659C209.695 322.752 210.033 321.887 210.577 321.155C211.199 320.491 210.838 319.625 210.971 318.866C211.33 317.15 211.801 315.458 212.381 313.803C213.004 311.72 213.447 309.586 213.704 307.427C213.705 307.311 213.743 307.199 213.811 307.106C215.159 305.923 214.489 304.185 214.996 302.756C215.549 301.266 215.893 299.708 216.019 298.124C216.336 296.614 216.478 295.072 216.442 293.53C216.309 292.737 216.752 292.09 216.835 291.347C217.133 289.218 217.323 287.076 217.404 284.928C217.553 283.93 217.839 282.958 218.255 282.039C218.375 279.338 218.729 276.659 218.982 273.97C219.11 273.526 219.142 273.059 219.075 272.601C218.682 270.752 218.77 268.833 219.33 267.027C219.546 265.284 218.915 263.587 219.112 261.849C219.194 261.124 218.955 260.326 219.609 259.736Z" fill="#5DBF89"/>
<path d="M87.9978 47.9171C91.682 48.3531 95.4314 48.0604 99.0799 48.8103C101.268 49.2601 103.479 49.6271 105.627 50.2779C107.078 50.5423 108.502 50.9406 109.879 51.4678C112.012 52.5948 114.389 52.9225 116.585 53.8754C118.801 54.9547 121.091 55.8743 123.438 56.6275C123.766 56.7357 124.081 56.8794 124.378 57.056C126.916 58.3369 129.561 59.3941 132.283 60.2158C134.098 60.8037 136.001 61.2517 137.842 61.8203C139.277 62.3591 140.788 62.6695 142.319 62.7403C144.604 62.6892 146.825 63.3997 149.075 63.1579C151.872 63.1907 154.658 62.8162 157.346 62.046C159.138 61.4863 160.872 60.7514 162.52 59.8519C163.782 59.1856 165.13 58.6972 166.526 58.4005C166.746 58.3313 166.971 58.4018 167.259 58.263C168.728 57.5541 169.795 58.1298 170.446 59.6239C170.763 60.2639 170.912 60.9739 170.878 61.6873C170.845 62.4007 170.631 63.0938 170.256 63.7016C169.196 65.7956 167.74 67.6636 165.967 69.2016C164.483 70.372 163.081 71.6432 161.771 73.0061C160.557 74.3058 158.777 75.1 157.473 76.3925C156.811 77.0484 155.579 76.1778 155.556 76.683C155.509 77.7308 154.758 77.7437 154.25 77.9329C153.162 78.3008 152.12 78.7925 151.144 79.3983C149.677 80.3746 147.825 80.2205 146.375 81.1843C146.269 81.2354 146.15 81.2496 146.035 81.2244C145.921 81.1993 145.818 81.1364 145.744 81.0458C145.615 80.9205 145.591 80.6055 145.309 80.9436C144.032 82.4761 142.108 82.4815 140.392 82.956C139.963 83.0747 139.428 82.899 139.386 83.589L138.015 83.5811C137.88 83.5123 137.751 83.4314 137.631 83.3394C136.267 83.7613 134.837 83.9285 133.413 83.8325C131.233 84.0886 129.082 84.4959 126.942 84.9022C121.723 85.8927 116.692 87.6236 111.593 89.0837C107.363 90.3613 103.07 91.4156 98.7295 92.2423C96.5707 92.4974 94.3885 92.4828 92.2333 92.1988C91.1111 92.1112 90.0652 91.6062 88.9149 91.6006C88.3121 91.5975 88.2854 91.514 88.1527 90.5114C88.1044 90.147 87.8525 90.3319 87.7091 90.2501C86.6793 89.8203 85.7877 89.1153 85.1318 88.2124C84.803 87.6807 84.5974 87.082 84.5301 86.4605C84.6161 85.3829 84.518 84.2986 84.2401 83.2539C84.0079 82.3592 84.1075 81.4107 84.5205 80.5838C85.1594 79.0689 85.0284 77.3461 85.6007 75.7928C85.665 75.6317 85.6938 75.4586 85.6851 75.2854C85.6129 74.5026 86.8067 74.2781 86.3992 73.1687C86.114 72.3924 86.6643 71.3092 86.8415 70.363C87.0082 69.4733 87.1996 68.5718 87.4202 67.7127C87.9199 65.7667 88.1426 63.7795 88.5838 61.8322C88.6742 61.3838 88.7222 60.928 88.727 60.4706C89.0744 57.4202 88.8614 54.3319 88.0984 51.3581C88.0507 51.2528 88.0403 51.1344 88.0688 51.0224C88.2962 50.4144 88.609 49.8418 88.9976 49.3218C89.2537 49.0347 87.6613 48.9129 87.9978 47.9171Z" fill="#F16175"/>
<path d="M199.138 276.12C197.748 276.16 196.36 276.01 195.01 275.673C193.965 275.213 192.834 274.982 191.692 274.995C190.296 275.039 188.979 274.15 187.523 274.13C187.413 274.129 187.286 274.01 187.196 274.038C185.617 274.534 184.315 273.547 182.919 273.18C181.85 272.697 180.745 272.301 179.614 271.993C177.072 271.47 174.588 270.7 172.196 269.694C170.541 269.179 168.934 268.535 167.349 267.885C165.633 267.181 163.975 266.299 162.26 265.562C161.734 265.335 161.37 264.608 160.605 265.166C160.362 265.343 160.022 264.942 160.014 264.693C159.993 264.435 159.903 264.186 159.754 263.974C159.605 263.761 159.402 263.593 159.166 263.485C157.696 262.633 156.979 261.074 155.743 260.008C154.645 258.877 153.718 257.593 152.99 256.196C151.701 254.258 150.54 252.236 149.517 250.145C148.681 248.25 148.034 246.276 147.588 244.253C147.079 242.184 146.814 240.082 146.366 238.01C146.257 237.507 146.388 237.048 145.573 237.006C145.139 236.984 145.161 236.239 145.532 236.048C146.561 235.517 146.456 234.625 146.283 233.808C145.948 232.114 145.908 230.375 146.165 228.667C146.179 227.712 146.141 226.756 146.051 225.805C145.912 224.795 146.004 223.767 146.32 222.799C146.366 222.704 146.301 222.557 146.342 222.457C146.677 221.659 144.945 220.962 145.796 220.688C146.978 220.309 146.255 219.517 146.57 219.01C146.867 218.264 147.001 217.463 146.963 216.66C147.032 215.912 147.362 215.227 147.489 214.522C147.783 212.889 148.36 211.345 148.736 209.747C148.987 208.931 149.308 208.139 149.693 207.378C149.773 207.136 149.916 206.919 150.108 206.752C150.3 206.584 150.533 206.471 150.784 206.424C151.034 206.377 151.293 206.399 151.532 206.486C151.771 206.573 151.983 206.724 152.144 206.921C153.337 207.708 154.458 208.598 155.494 209.581C156.249 210.514 157.299 211.126 157.88 212.296C158.303 213.148 158.937 214.228 160.263 214.183C160.691 214.169 160.809 214.49 160.921 214.847C161.264 215.603 161.806 216.253 162.487 216.727C163.852 217.788 165.155 218.927 166.389 220.138C166.633 220.387 166.926 220.58 167.25 220.707C168.478 221.428 169.62 222.286 170.655 223.264C172.221 223.877 172.22 225.496 172.874 226.7C174.702 229.98 176.789 233.108 179.115 236.055C183.439 241.466 187.221 247.289 190.406 253.441C193.724 259.847 196.493 266.525 198.68 273.4C199.002 274.27 199.157 275.193 199.138 276.12Z" fill="#5CBF88"/>
<path d="M223.689 318.345C223.229 318.392 222.767 318.289 222.371 318.05C221.88 317.79 221.814 317.204 222.131 317.112C223.343 316.758 222.704 315.748 222.964 315.084C223.417 313.926 223.698 312.702 224.125 311.532C225.068 308.681 225.863 305.782 226.505 302.848C226.881 301.355 226.891 299.774 227.289 298.318C227.767 296.563 228.274 294.807 228.727 293.043C229.087 292.023 229.26 290.945 229.236 289.863C229.196 289.515 229.263 289.164 229.428 288.856C229.895 287.877 230.072 286.785 229.939 285.708C230.933 284.417 231.721 282.98 232.276 281.449C233.234 278.895 234.362 276.409 235.652 274.007C235.795 273.702 236.072 273.426 236.113 273.114C236.219 272.306 236.509 271.862 237.418 272.075C237.528 272.101 237.714 271.8 237.864 271.651C237.705 271.606 237.547 271.553 237.385 271.519C237.177 271.475 236.927 271.508 237.105 271.145C237.305 270.739 237.455 270.309 237.623 269.887C237.812 269.412 237.837 268.86 238.544 269.611C238.972 270.066 240.091 269.268 240.107 268.56C240.12 267.931 239.641 268.023 239.249 268.017C238.777 268.01 238.717 267.907 238.905 267.415C239.938 264.984 241.124 262.622 242.457 260.342C243.347 258.685 244.696 257.261 245.736 255.646C246.308 254.359 247.065 253.162 247.983 252.094C248.192 251.912 248.242 251.273 248.617 251.196C248.96 251.125 248.936 250.291 249.486 250.807C249.515 250.834 249.589 250.815 249.642 250.817C249.672 248.854 251.691 248.592 252.663 247.421C254.536 245.249 256.593 243.243 258.811 241.426C260.013 240.405 261.158 239.317 262.333 238.264C262.893 237.773 263.382 237.207 263.788 236.582C264.086 236.117 264.207 234.834 265.27 235.957C265.333 236.023 265.846 235.814 265.998 235.617C266.822 234.546 268.096 234.023 269.011 233.042C269.701 232.468 270.465 231.988 271.281 231.615C271.266 236.075 270.827 240.525 269.97 244.902C269.532 247.31 268.873 249.672 268.001 251.958C267.073 254.62 265.985 257.224 264.744 259.756C263.705 261.915 262.694 264.105 261.449 266.175C260.791 267.236 260.204 268.339 259.695 269.479C258.539 272.185 256.821 274.614 255.904 277.435C255.664 278.172 254.904 278.68 254.632 279.455C254.512 279.794 254.341 279.72 254.174 279.501C253.899 279.14 253.605 279.108 253.363 279.498C253.315 279.554 253.284 279.622 253.271 279.695C253.258 279.767 253.264 279.842 253.288 279.911C253.313 279.981 253.355 280.043 253.411 280.091C253.466 280.139 253.533 280.172 253.606 280.186C254.224 280.28 254.11 280.564 253.976 280.992C253.717 281.816 253.23 282.53 252.914 283.313C252.269 284.91 252.021 286.678 251.37 288.232C250.479 290.359 250.251 292.607 249.562 294.749C249.396 295.701 249.289 296.663 249.24 297.628C248.856 299.604 248.649 301.611 248.622 303.625C248.602 305.142 248.769 306.669 248.653 308.195C248.64 308.654 248.74 309.11 248.945 309.522C249.19 310.094 249.325 310.651 248.325 310.445C248.196 310.418 248.02 310.657 248.095 310.827C248.211 311.093 248.462 311.41 248.732 311.312C249.566 311.007 249.395 311.551 249.38 311.993C249.223 311.939 248.991 311.789 248.918 311.845C246.76 313.156 244.329 313.951 241.814 314.169C240.789 314.531 239.746 314.841 238.689 315.099C236.852 315.267 235.038 315.628 233.276 316.175C232.045 316.394 230.792 316.459 229.544 316.369C228.176 316.551 226.784 316.416 225.475 315.975C224.471 315.569 224.067 315.927 224.061 317.061C224.058 317.565 223.666 317.881 223.689 318.345Z" fill="#2B3D59"/>
<path d="M199.138 276.12C198.439 274.111 197.775 272.088 197.031 270.096C196.427 268.478 195.861 266.839 195.275 265.222C194.597 263.35 193.467 261.701 192.913 259.804C192.544 258.541 191.742 257.504 191.256 256.295C190.34 254.188 189.292 252.141 188.117 250.167C187.236 248.591 186.272 247.062 185.37 245.502C183.696 242.605 181.462 240.073 179.556 237.317C178.213 235.376 176.705 233.539 175.386 231.57C174.097 229.774 172.962 227.873 171.993 225.886C171.857 225.582 171.503 225.322 171.719 224.956C171.988 224.5 172.051 224.28 171.378 224.243C170.851 224.213 170.601 223.809 170.655 223.264C172.55 224.258 174.354 225.418 176.045 226.731C177.475 227.755 179.03 228.593 180.673 229.224C182.187 229.842 183.426 230.928 184.99 231.444C188.107 232.472 190.819 234.382 193.871 235.59C195.903 236.518 197.884 237.556 199.804 238.7C201.483 239.462 203.066 240.421 204.519 241.556C206.516 243.305 208.511 245.061 210.535 246.78C212.46 248.415 213.562 250.786 215.594 252.311C216.391 254.501 218.285 256.087 218.922 258.375C219.054 258.851 219.578 259.178 219.609 259.736C219.495 261.671 219.597 263.612 219.914 265.524C220.246 266.87 219.396 268.307 219.539 269.751C218.471 270.178 219.098 270.561 219.399 271.228C219.61 271.732 219.719 272.272 219.719 272.819C219.719 273.365 219.609 273.906 219.398 274.409C219.234 274.749 219.161 275.125 219.185 275.501C219.306 277.72 218.99 279.941 218.255 282.038C218.05 281.929 217.891 281.75 217.807 281.533C217.723 281.316 217.719 281.077 217.797 280.858C218.036 279.658 217.447 279.328 216.384 279.049C214.282 278.414 212.102 278.075 209.907 278.043C208.772 277.987 207.645 277.829 206.539 277.572C206.056 277.493 205.554 277.111 205.183 277.781C205.076 277.975 204.887 277.898 204.759 277.782C203.283 276.444 201.331 276.798 199.613 276.321C199.45 276.265 199.292 276.198 199.138 276.12Z" fill="#2B3D59"/>
<path d="M216.091 7.00546C216.043 7.62094 216.667 7.65216 216.946 7.98373C217.931 9.17715 218.665 10.5572 219.104 12.0412C219.638 13.4107 220.015 14.836 220.229 16.2901C220.282 17.0355 220.422 17.5406 221.311 17.7831C222.152 18.0125 222.121 18.3575 221.318 18.807C221.193 18.873 221.092 18.9761 221.029 19.102C220.966 19.2279 220.944 19.3704 220.965 19.5096C221.045 20.6042 221.029 21.7037 220.919 22.7956C220.76 23.6902 222.168 23.318 221.726 23.8272C221.425 24.1732 220.887 24.2592 220.958 24.9141C221.119 26.3919 220.887 27.8673 221.165 29.377C221.207 30.5549 221.014 31.7294 220.597 32.8318C220.119 34.7595 219.561 36.6672 219.035 38.5828C219.02 38.6372 218.954 38.7208 218.966 38.7333C220.104 39.8217 218.772 40.5168 218.464 41.2802C217.481 43.7188 216.728 46.2404 215.603 48.6326C213.84 52.5971 211.617 56.3403 208.98 59.785C207.308 61.8826 205.534 63.9268 203.705 65.8308C200.955 68.693 198.434 71.774 195.502 74.486C193.32 76.5039 191.278 78.7127 189.021 80.647C187.253 82.161 185.477 83.6878 183.592 85.0863C181.57 86.3526 179.715 87.8689 178.072 89.5991C177.934 89.1822 177.922 88.7338 178.038 88.3102C178.155 87.8866 178.393 87.5069 178.725 87.2188C180.675 85.1214 182.017 82.5487 184.005 80.4802C184.14 80.3392 184.123 80.0517 184.177 79.8324C185.584 79.4107 186.851 78.6164 187.844 77.5337C190.304 75.0853 192.499 72.3834 194.391 69.4733C194.864 68.8101 196.039 68.4705 195.403 67.2077C195.237 66.88 196.012 66.6241 196.329 66.3072C197.438 65.087 198.35 63.7002 199.029 62.1974C200.364 59.5852 201.763 56.998 203.004 54.3287C203.954 52.284 204.975 50.243 205.825 48.1638C207.142 45.6132 208.061 42.8756 208.548 40.0466C208.837 38.3528 209.357 36.7067 210.093 35.1541C210.261 34.6603 210.361 34.1457 210.388 33.6248C210.635 31.4262 211.105 29.2537 211.407 27.0598C211.759 25.8361 211.817 24.5466 211.577 23.2963C210.789 21.3479 211.157 19.0837 209.733 17.3202C209.273 16.7498 209.333 15.785 209.034 15.0497C208.815 14.5109 208.634 13.735 207.763 13.9251C207.021 14.087 207.138 14.7172 207.058 15.301C206.795 17.2259 206.412 19.1341 206.136 21.0576C206.025 21.8343 205.617 22.0325 204.971 21.8396C203.1 21.3952 201.27 20.7959 199.499 20.0479C198.609 19.6087 197.937 18.6472 196.888 18.2505C196.514 18.1094 196.561 17.3282 196.798 17.1721C197.649 16.6109 197.453 15.5979 197.939 14.9089C200.148 11.1936 203.679 8.44952 207.824 7.22562C208.73 6.90183 209.658 6.64623 210.602 6.46097C212.45 6.25465 214.32 6.44018 216.091 7.00546Z" fill="#F16176"/>
<path d="M165.094 3.10244C165.268 4.28713 165.56 5.45136 165.967 6.57759C166.121 7.59488 166.139 8.62834 166.018 9.65023C165.961 10.3414 164.958 10.5036 165.324 11.4937C165.546 12.095 164.913 12.9832 164.764 13.7616C164.701 14.1535 164.55 14.5258 164.321 14.8498C162.828 16.9344 161.443 19.1006 159.867 21.1183C158.609 22.7292 157.194 24.2133 155.953 25.8528C155.702 26.2433 155.368 26.5736 154.974 26.8199C154.581 27.0663 154.138 27.2227 153.677 27.2779C153.187 27.2864 153.339 27.5907 153.28 27.8321C153.068 28.6883 152.855 29.5485 151.697 29.5339C151.64 29.5328 151.584 29.5432 151.531 29.5645C151.478 29.5857 151.43 29.6174 151.39 29.6575C149.486 31.528 147.346 33.1418 145.024 34.4581C144.113 35.1348 143.113 35.6833 142.053 36.0881C141.539 36.3044 140.9 36.3203 140.772 37.0426C140.098 37.171 139.401 37.0887 138.776 36.8068C136.45 36.4626 134.148 35.9729 131.884 35.3407C130.951 35.0033 129.925 35.0883 128.986 34.7315C127.982 34.4874 126.993 34.186 126.024 33.8288C125.786 33.7061 125.596 33.8874 125.382 33.9381C125.049 34.0169 125.259 34.7121 124.784 34.4599C124.701 34.4162 124.809 33.7998 124.974 33.5402C125.794 32.1698 126.683 30.8423 127.638 29.5627C129.26 27.5097 130.919 25.4735 132.712 23.5707C134.638 21.5252 136.706 19.6086 138.767 17.6957C141.816 14.9674 145.029 12.4277 148.387 10.0908C149.308 9.42533 150.228 8.75986 151.173 8.12549C152.368 7.24362 153.66 6.50241 155.025 5.91654C157.035 5.15404 158.669 3.71136 160.733 2.96147C162.15 2.43847 163.714 2.48905 165.094 3.10244Z" fill="#F16176"/>
<path d="M212.978 163.481C212.715 163.911 213.009 164.511 212.552 164.882C213.341 165.2 212.88 165.867 212.958 166.377C213.044 166.945 212.968 167.433 212.192 167.34C211.755 167.287 211.456 167.622 211.09 167.764C211.024 167.795 210.966 167.839 210.919 167.895C210.872 167.95 210.838 168.015 210.819 168.085C210.8 168.155 210.796 168.229 210.809 168.3C210.821 168.372 210.849 168.44 210.89 168.499C210.977 168.616 211.107 168.694 211.25 168.718C211.394 168.741 211.541 168.708 211.661 168.625C211.845 168.492 212.007 168.331 212.142 168.15C212.297 167.985 212.445 167.756 212.696 167.826C213.063 167.928 212.94 168.278 212.981 168.539C213.233 170.183 212.581 171.8 212.835 173.449C212.844 173.563 212.824 173.678 212.779 173.783C212.734 173.889 212.664 173.982 212.575 174.054C211.859 174.398 212.124 174.826 212.415 175.264C212.654 175.549 212.805 175.898 212.848 176.268C212.892 176.638 212.826 177.013 212.66 177.346C212.331 178.284 212.224 179.285 212.347 180.271C212.236 181.462 212.05 182.645 211.79 183.812C210.834 181.946 209.974 180.032 209.214 178.078C208.184 175.603 206.987 173.2 205.631 170.888C204.696 169.441 203.918 167.872 202.972 166.407C202.742 166.05 202.362 165.921 202.197 165.563C203.036 164.585 204.153 163.884 205.399 163.554C206.693 163.01 207.931 162.375 209.166 161.722C209.514 161.658 209.844 161.517 210.13 161.308C210.415 161.099 210.65 160.829 210.817 160.517C211.358 161.635 212.524 162.299 212.978 163.481Z" fill="#2E3F5A"/>
<path d="M281.062 25.6839C279.895 25.7431 278.727 25.6007 277.609 25.263C276.112 25.0723 274.706 22.3706 275.148 20.4711C275.929 17.1104 276.795 16.3515 280.31 15.3319C280.99 15.2315 281.683 15.2996 282.33 15.5301C283.497 15.8081 284.626 16.2266 285.692 16.7764C286.332 17.0992 286.85 17.6205 287.17 18.2625C287.489 18.9044 287.592 19.6324 287.463 20.3377C287.304 21.8878 286.546 23.3146 285.35 24.3135C284.155 25.3124 282.615 25.8042 281.062 25.6839Z" fill="#FACCD7"/>
<path d="M73.8118 251.81C73.7303 250.897 73.9847 249.985 74.5273 249.246C75.0699 248.507 75.8635 247.992 76.7591 247.796C79.1667 247.029 81.742 246.957 84.1887 247.588C84.5235 247.672 84.8358 247.829 85.1032 248.047C85.3706 248.265 85.5864 248.54 85.7354 248.851C85.9575 249.254 86.1583 249.667 86.337 250.091C86.7779 251.323 87.625 252.909 86.7663 253.812C86.2614 254.357 85.6504 254.793 84.9709 255.093C84.2913 255.393 83.5576 255.551 82.8147 255.558C81.303 255.539 79.8006 255.843 78.2574 255.822C77.3563 255.798 76.4607 255.673 75.5873 255.45C75.0873 255.317 74.6441 255.026 74.325 254.618C74.0059 254.211 73.8284 253.711 73.8193 253.194C73.7744 252.737 73.8118 252.271 73.8118 251.81Z" fill="#FACCD7"/>
<path d="M126.199 276.729C127.483 276.241 128.692 277.183 130.018 277.455C130.975 277.652 131.253 279.1 130.862 280.254C130.317 281.087 129.539 281.743 128.626 282.14C127.713 282.537 126.703 282.658 125.721 282.49C125.171 282.341 124.605 282.259 124.035 282.245C123.513 282.182 123.018 281.976 122.605 281.649C122.193 281.322 121.878 280.888 121.698 280.394C121.541 279.823 121.571 279.218 121.783 278.666C121.995 278.114 122.379 277.644 122.877 277.326C123.88 276.743 125.056 276.531 126.199 276.729Z" fill="#FACCD7"/>
<path d="M292.439 118.718C291.932 118.759 291.422 118.674 290.956 118.47C290.489 118.267 290.08 117.951 289.765 117.551C289.45 117.152 289.238 116.68 289.149 116.179C289.06 115.678 289.096 115.163 289.254 114.679C289.509 113.82 290.162 113.226 290.442 112.41C290.481 112.335 290.537 112.269 290.605 112.217C290.672 112.165 290.75 112.129 290.833 112.111C292.258 111.556 293.816 111.438 295.308 111.772C295.902 112.03 296.373 112.507 296.624 113.104C296.875 113.701 296.885 114.371 296.654 114.976C296.509 115.471 296.305 115.946 296.046 116.393C295.744 117.095 295.24 117.692 294.597 118.106C293.955 118.52 293.203 118.733 292.439 118.718Z" fill="#FACCD7"/>
<path d="M105.576 205.752C108.901 205.996 110.152 208.025 109.183 211.269C109.148 211.432 109.065 211.581 108.944 211.696C107.303 212.866 103.999 213.33 102.672 211.258C102.265 210.673 102.004 209.998 101.912 209.291C101.82 208.584 101.9 207.865 102.144 207.196C102.447 206.401 102.933 205.749 103.913 205.884C104.49 205.964 105.004 205.547 105.576 205.752Z" fill="#FACCD7"/>
<path d="M79.6507 90.6238C79.1067 90.4837 78.5706 90.3145 78.0448 90.1169C77.6526 89.9486 77.4361 89.9789 77.2248 90.3653C77.0713 90.6459 76.8453 91.0285 76.4511 90.8066C76.0868 90.6017 76.4714 90.3221 76.5034 90.0712C76.54 89.7848 76.4022 89.6749 76.1109 89.8106C75.2014 90.2335 74.5642 89.5618 73.8418 89.2346C74.3687 87.1157 76.1983 86.075 77.6053 84.6846C78.9216 84.9892 79.305 86.0987 79.7418 87.1621C79.4785 88.2981 79.4475 89.4755 79.6507 90.6238Z" fill="#F38088"/>
<path d="M79.7417 87.162C78.7562 86.572 78.5185 85.3369 77.6052 84.6845C78.2651 83.9645 79.1519 83.4926 80.1177 83.3473C81.0835 83.202 82.0699 83.3923 82.9124 83.8862C80.8138 84.1193 80.4478 85.7909 79.7417 87.162Z" fill="#F16578"/>
<path d="M250.826 109.068C250.413 107.7 250.474 106.233 251 104.905C251.606 103.349 251.9 101.689 251.863 100.019C251.776 99.5095 252.08 99.2838 252.571 99.2828C252.879 100.535 252.833 101.849 252.436 103.076C251.972 104.995 251.476 106.908 251.066 108.842C251.047 108.93 250.909 108.993 250.826 109.068Z" fill="#F16578"/>
<path d="M104.7 98.9385C104.62 98.9309 104.545 98.8922 104.493 98.8307C104.441 98.7691 104.415 98.6896 104.42 98.6091C104.421 98.5683 104.533 98.53 104.594 98.4906L104.685 98.9517L104.7 98.9385Z" fill="#F38088"/>
<path d="M137.631 83.3392C137.713 83.3311 137.795 83.3505 137.864 83.3943C137.934 83.438 137.987 83.5037 138.015 83.5809C137.798 83.6416 137.705 83.5053 137.631 83.3392Z" fill="#F38088"/>
<path d="M72.7529 128.787L72.6243 129.027L72.5352 128.858L72.7777 128.817L72.7529 128.787Z" fill="#F16075"/>
<path d="M224.427 82.5819C222.275 84.3635 220.24 86.2827 218.336 88.3277C215.282 91.5897 212.062 94.6916 208.688 97.621C207.53 98.7821 206.436 100.006 205.412 101.286C203.969 102.858 202.774 104.661 201.297 106.196C199.981 107.565 198.797 109.041 197.586 110.485C196.61 111.65 196.037 113.117 195.078 114.355C193.316 116.632 191.939 119.195 190.33 121.577C189.213 123.232 188.66 125.092 187.685 126.777C186.784 128.48 186.121 130.298 185.715 132.18C184.989 134.678 184.556 137.252 184.423 139.849C184.445 141.062 184.323 142.273 184.059 143.458C183.786 144.783 183.731 146.143 183.896 147.486C184.043 149.175 183.862 150.848 183.952 152.526C183.967 152.805 183.829 153.092 183.847 153.37C183.974 155.324 183.92 155.401 182.103 155.587C181.688 155.525 181.234 155.406 181.132 154.978C180.509 152.808 180.01 150.605 179.638 148.379C179.33 145.894 179.235 143.388 179.355 140.888C179.425 138.156 179.652 135.431 180.034 132.725C180.569 129.614 181.516 126.589 182.85 123.728C183.968 121.286 185.337 118.977 186.518 116.585C187.768 114.055 189.761 112.017 190.819 109.406C192.17 108.762 192.002 106.651 193.741 106.378C193.777 106.372 193.821 106.315 193.834 106.272C194.738 103.42 197.184 101.76 198.928 99.5509C200.82 97.1019 202.895 94.7993 205.134 92.663C207.775 89.8197 210.581 87.1344 213.537 84.621C213.869 84.3158 214.168 83.977 214.43 83.6101C216.4 81.4375 218.497 79.3919 220.551 77.3041C221.507 76.333 222.284 75.212 223.205 74.2018C226.796 70.1565 229.828 65.6475 232.219 60.7955C232.815 59.6881 233.329 58.5389 233.759 57.3571C234.116 56.303 235.112 55.6949 235.395 54.5753C235.574 53.8666 236.507 54.2046 237.083 54.0619C237.291 54.0103 237.391 54.6234 237.471 55.0215C237.888 58.5252 237.74 62.0732 237.032 65.5299C236.512 68.1765 235.236 70.6154 233.357 72.5504C231.849 74.5973 230.191 76.5291 228.396 78.3295C226.955 79.6316 225.627 81.0542 224.427 82.5819Z" fill="#FFFDFD"/>
<path d="M225.117 15.6097L225.02 15.8745C224.771 15.6507 225.07 15.6973 225.14 15.6307L225.117 15.6097Z" fill="white"/>
<path d="M296.827 258.716L296.956 258.83C296.911 258.866 296.866 258.931 296.822 258.93C296.778 258.929 296.736 258.862 296.693 258.824L296.827 258.716Z" fill="white"/>
<path d="M220.453 30.6514L220.489 30.7578L220.392 30.7457L220.453 30.6514Z" fill="#F38088"/>
<path d="M145.152 33.5108C145.06 33.5541 144.964 33.5888 144.865 33.6145C144.838 33.6196 144.794 33.5372 144.758 33.4949C144.851 33.4518 144.947 33.417 145.046 33.3911C145.073 33.386 145.116 33.4683 145.152 33.5108Z" fill="#F38088"/>
</svg>
