<svg width="196" height="231" viewBox="0 0 196 231" fill="none" xmlns="http://www.w3.org/2000/svg">
<g clip-path="url(#clip0_2_1610)">
<path fill-rule="evenodd" clip-rule="evenodd" d="M154.56 192.397C156.716 202.349 166.903 208.589 177.315 206.334C187.727 204.079 215.829 179.127 215.829 179.127C215.829 179.127 179.921 168.038 169.509 170.293C159.098 172.548 152.405 182.444 154.56 192.397Z" fill="#80D25B"/>
<path fill-rule="evenodd" clip-rule="evenodd" d="M104.547 189.963C101.438 199.66 90.6935 204.884 80.5493 201.631C70.405 198.378 44.8518 170.821 44.8518 170.821C44.8518 170.821 81.6653 163.263 91.8096 166.516C101.954 169.769 107.657 180.267 104.547 189.963Z" fill="#80D25B"/>
<path d="M125.231 241.81L133.465 72.2117" stroke="#22BA8E" stroke-width="1.875" stroke-linecap="square"/>
<path d="M172.113 188.707C147.702 187.522 126.953 206.35 125.768 230.76" stroke="#22BA8E" stroke-width="1.875" stroke-linecap="round"/>
<path d="M83.7141 184.415C108.125 185.6 126.953 206.35 125.768 230.76" stroke="#22BA8E" stroke-width="1.875" stroke-linecap="round"/>
<path fill-rule="evenodd" clip-rule="evenodd" d="M157.064 140.831C159.219 150.783 169.407 157.023 179.818 154.768C190.23 152.513 218.333 127.561 218.333 127.561C218.333 127.561 182.424 116.472 172.013 118.727C161.601 120.982 154.908 130.878 157.064 140.831Z" fill="#80D25B"/>
<path fill-rule="evenodd" clip-rule="evenodd" d="M107.051 138.398C103.941 148.094 93.197 153.318 83.0527 150.065C72.9084 146.812 47.3552 119.255 47.3552 119.255C47.3552 119.255 84.1687 111.697 94.313 114.95C104.457 118.203 110.16 128.701 107.051 138.398Z" fill="#80D25B"/>
<path d="M174.616 137.141C150.206 135.956 129.456 154.784 128.271 179.194" stroke="#22BA8E" stroke-width="1.875" stroke-linecap="round"/>
<path d="M86.2176 132.849C110.628 134.034 129.456 154.784 128.271 179.194" stroke="#22BA8E" stroke-width="1.875" stroke-linecap="round"/>
<path fill-rule="evenodd" clip-rule="evenodd" d="M143.141 95.7695C137.447 89.9711 127.763 89.5181 121.553 94.7214L119.062 96.8091C112.833 102.029 108.584 99.6955 109.565 91.6538L109.958 88.4273C110.941 80.3605 105.257 72.5065 97.3177 70.8961L94.1322 70.2499C86.1679 68.6345 85.3428 63.8577 92.2413 59.6102L95.009 57.9061C101.929 53.6453 104.526 44.3045 100.834 37.0931L99.3535 34.1997C95.6508 26.9657 98.871 23.3423 106.493 26.0875L109.551 27.1889C117.197 29.9427 126.119 26.1489 129.455 18.7668L130.794 15.8049C134.141 8.39971 138.982 8.65824 141.588 16.3289L142.633 19.4065C145.248 27.1011 153.776 31.7112 161.628 29.7172L164.779 28.9172C172.655 26.9171 175.471 30.8628 171.099 37.6829L169.345 40.4192C164.958 47.2604 166.672 56.8028 173.126 61.6986L175.716 63.6629C182.191 68.5739 180.862 73.2356 172.803 74.0694L169.57 74.4039C161.487 75.2402 155.095 82.5293 155.291 90.6282L155.37 93.8776C155.568 102.002 151.094 103.869 145.418 98.0887L143.141 95.7695Z" fill="#D650C7"/>
<path d="M133.636 68.6957C139.739 68.992 144.926 64.285 145.222 58.1823C145.519 52.0797 140.812 46.8923 134.709 46.596C128.606 46.2998 123.419 51.0068 123.123 57.1094C122.826 63.2121 127.533 68.3995 133.636 68.6957Z" fill="#FCC24C"/>
</g>
<defs>
<clipPath id="clip0_2_1610">
<rect width="236.008" height="236.008" fill="white" transform="translate(11.4443) rotate(2.77948)"/>
</clipPath>
</defs>
</svg>
